<mxfile host="app.diagrams.net" agent="Mozilla/5.0 (Windows NT 10.0; Win64; x64) AppleWebKit/537.36 (KHTML, like Gecko) Chrome/135.0.0.0 Safari/537.36" version="26.2.14">
  <diagram name="Page-1" id="37dzCsnO_KKN687mTg4A">
    <mxGraphModel dx="1042" dy="608" grid="1" gridSize="10" guides="1" tooltips="1" connect="1" arrows="1" fold="1" page="1" pageScale="1" pageWidth="850" pageHeight="1100" math="0" shadow="0">
      <root>
        <mxCell id="0" />
        <mxCell id="1" parent="0" />
        <mxCell id="g61Q9Uzbw6mHx5z8qlw4-1" value="User" style="rounded=0;whiteSpace=wrap;html=1;" vertex="1" parent="1">
          <mxGeometry x="80" y="90" width="120" height="60" as="geometry" />
        </mxCell>
        <mxCell id="g61Q9Uzbw6mHx5z8qlw4-2" value="" style="endArrow=classic;html=1;rounded=0;" edge="1" parent="1" target="g61Q9Uzbw6mHx5z8qlw4-3">
          <mxGeometry width="50" height="50" relative="1" as="geometry">
            <mxPoint x="200" y="120" as="sourcePoint" />
            <mxPoint x="280" y="120" as="targetPoint" />
            <Array as="points">
              <mxPoint x="418" y="120" />
            </Array>
          </mxGeometry>
        </mxCell>
        <mxCell id="g61Q9Uzbw6mHx5z8qlw4-3" value="Sistem pemesanan ruang aula" style="ellipse;whiteSpace=wrap;html=1;aspect=fixed;" vertex="1" parent="1">
          <mxGeometry x="370" y="250" width="95" height="95" as="geometry" />
        </mxCell>
        <mxCell id="g61Q9Uzbw6mHx5z8qlw4-4" value="Database" style="rounded=0;whiteSpace=wrap;html=1;" vertex="1" parent="1">
          <mxGeometry x="640" y="267.5" width="120" height="60" as="geometry" />
        </mxCell>
        <mxCell id="g61Q9Uzbw6mHx5z8qlw4-5" value="" style="endArrow=classic;html=1;rounded=0;" edge="1" parent="1">
          <mxGeometry width="50" height="50" relative="1" as="geometry">
            <mxPoint x="465" y="297" as="sourcePoint" />
            <mxPoint x="640" y="297" as="targetPoint" />
          </mxGeometry>
        </mxCell>
        <mxCell id="g61Q9Uzbw6mHx5z8qlw4-6" value="menginput form peminjaman" style="text;html=1;align=center;verticalAlign=middle;whiteSpace=wrap;rounded=0;" vertex="1" parent="1">
          <mxGeometry x="220" y="90" width="170" height="30" as="geometry" />
        </mxCell>
        <mxCell id="g61Q9Uzbw6mHx5z8qlw4-7" value="" style="endArrow=classic;html=1;rounded=0;entryX=0.5;entryY=1;entryDx=0;entryDy=0;" edge="1" parent="1" source="g61Q9Uzbw6mHx5z8qlw4-3" target="g61Q9Uzbw6mHx5z8qlw4-1">
          <mxGeometry width="50" height="50" relative="1" as="geometry">
            <mxPoint x="400" y="340" as="sourcePoint" />
            <mxPoint x="450" y="290" as="targetPoint" />
            <Array as="points">
              <mxPoint x="140" y="298" />
            </Array>
          </mxGeometry>
        </mxCell>
        <mxCell id="g61Q9Uzbw6mHx5z8qlw4-8" value="output berupa file pdf" style="text;html=1;align=center;verticalAlign=middle;whiteSpace=wrap;rounded=0;" vertex="1" parent="1">
          <mxGeometry x="150" y="267.5" width="170" height="30" as="geometry" />
        </mxCell>
        <mxCell id="g61Q9Uzbw6mHx5z8qlw4-9" value="Menyimpan bukti file pdf" style="text;html=1;align=center;verticalAlign=middle;whiteSpace=wrap;rounded=0;" vertex="1" parent="1">
          <mxGeometry x="470" y="267.5" width="170" height="30" as="geometry" />
        </mxCell>
        <mxCell id="g61Q9Uzbw6mHx5z8qlw4-10" value="" style="endArrow=classic;html=1;rounded=0;entryX=0.25;entryY=1;entryDx=0;entryDy=0;exitX=0.278;exitY=0.937;exitDx=0;exitDy=0;exitPerimeter=0;" edge="1" parent="1" source="g61Q9Uzbw6mHx5z8qlw4-3" target="g61Q9Uzbw6mHx5z8qlw4-1">
          <mxGeometry width="50" height="50" relative="1" as="geometry">
            <mxPoint x="340" y="338" as="sourcePoint" />
            <mxPoint x="110" y="190" as="targetPoint" />
            <Array as="points">
              <mxPoint x="110" y="338" />
            </Array>
          </mxGeometry>
        </mxCell>
        <mxCell id="g61Q9Uzbw6mHx5z8qlw4-11" value="output jadwal peminjaman" style="text;html=1;align=center;verticalAlign=middle;whiteSpace=wrap;rounded=0;" vertex="1" parent="1">
          <mxGeometry x="150" y="310" width="170" height="30" as="geometry" />
        </mxCell>
        <mxCell id="g61Q9Uzbw6mHx5z8qlw4-12" value="&lt;font style=&quot;font-size: 18px;&quot;&gt;Data &lt;font style=&quot;&quot;&gt;Flow &lt;/font&gt;Diagram&lt;/font&gt;" style="text;html=1;align=center;verticalAlign=middle;whiteSpace=wrap;rounded=0;" vertex="1" parent="1">
          <mxGeometry x="30" y="20" width="170" height="30" as="geometry" />
        </mxCell>
      </root>
    </mxGraphModel>
  </diagram>
</mxfile>
